<svg width="1713" height="918" viewBox="0 0 1713 918" fill="none" xmlns="http://www.w3.org/2000/svg">
<path d="M370.623 250C370.624 250.077 370.601 250.152 370.557 250.215C370.512 250.278 370.45 250.326 370.377 250.352L368.89 250.893L368.35 252.379C368.323 252.451 368.275 252.513 368.213 252.557C368.15 252.6 368.075 252.624 367.998 252.624C367.922 252.624 367.847 252.6 367.784 252.557C367.721 252.513 367.673 252.451 367.647 252.379L367.106 250.892L365.62 250.352C365.548 250.325 365.486 250.277 365.442 250.214C365.398 250.152 365.375 250.077 365.375 250C365.375 249.924 365.398 249.849 365.442 249.786C365.486 249.723 365.548 249.675 365.62 249.649L367.106 249.108L367.647 247.621C367.673 247.55 367.721 247.488 367.784 247.444C367.847 247.4 367.922 247.377 367.998 247.377C368.075 247.377 368.15 247.4 368.213 247.444C368.275 247.488 368.323 247.55 368.35 247.621L368.891 249.108L370.377 249.649C370.45 249.675 370.512 249.722 370.557 249.785C370.601 249.848 370.624 249.923 370.623 250Z" fill="#3E3E3E" fill-opacity="0.9"/>
<path d="M384.561 253C384.561 253.077 384.534 253.152 384.483 253.215C384.431 253.278 384.358 253.326 384.274 253.352L382.539 253.893L381.908 255.379C381.877 255.451 381.821 255.513 381.748 255.557C381.675 255.6 381.587 255.624 381.498 255.624C381.409 255.624 381.322 255.6 381.248 255.557C381.175 255.513 381.119 255.451 381.088 255.379L380.457 253.892L378.723 253.352C378.639 253.325 378.567 253.277 378.516 253.214C378.465 253.152 378.438 253.077 378.438 253C378.438 252.924 378.465 252.849 378.516 252.786C378.567 252.723 378.639 252.675 378.723 252.649L380.457 252.108L381.088 250.621C381.119 250.55 381.175 250.488 381.248 250.444C381.322 250.4 381.409 250.377 381.498 250.377C381.587 250.377 381.675 250.4 381.748 250.444C381.821 250.488 381.877 250.55 381.908 250.621L382.539 252.108L384.274 252.649C384.358 252.675 384.431 252.722 384.483 252.785C384.534 252.848 384.561 252.923 384.561 253Z" fill="#3E3E3E" fill-opacity="0.9"/>
<path d="M1604.5 352.5C1604.5 352.59 1604.47 352.678 1604.41 352.751C1604.35 352.825 1604.27 352.88 1604.17 352.91L1602.19 353.541L1601.47 355.275C1601.44 355.359 1601.37 355.431 1601.29 355.482C1601.2 355.533 1601.1 355.561 1601 355.561C1600.9 355.561 1600.8 355.533 1600.72 355.482C1600.63 355.431 1600.57 355.359 1600.53 355.275L1599.81 353.541L1597.83 352.91C1597.73 352.879 1597.65 352.823 1597.59 352.75C1597.54 352.677 1597.5 352.589 1597.5 352.5C1597.5 352.411 1597.54 352.324 1597.59 352.25C1597.65 352.177 1597.73 352.121 1597.83 352.09L1599.81 351.459L1600.53 349.725C1600.57 349.641 1600.63 349.569 1600.72 349.518C1600.8 349.467 1600.9 349.439 1601 349.439C1601.1 349.439 1601.2 349.467 1601.29 349.518C1601.37 349.569 1601.44 349.641 1601.47 349.725L1602.19 351.459L1604.17 352.09C1604.27 352.12 1604.35 352.176 1604.41 352.249C1604.47 352.323 1604.5 352.41 1604.5 352.5Z" fill="#3E3E3E" fill-opacity="0.9"/>
<path d="M491.561 3.00036C491.561 3.07727 491.534 3.15245 491.483 3.21546C491.431 3.27846 491.358 3.32616 491.274 3.35193L489.539 3.89263L488.908 5.37927C488.877 5.45104 488.821 5.51293 488.748 5.55664C488.675 5.60035 488.587 5.62378 488.498 5.62378C488.409 5.62378 488.322 5.60035 488.248 5.55664C488.175 5.51293 488.119 5.45104 488.088 5.37927L487.457 3.8924L485.723 3.35193C485.639 3.32529 485.567 3.27732 485.516 3.21448C485.465 3.15163 485.438 3.07692 485.438 3.00036C485.438 2.92381 485.465 2.8491 485.516 2.78625C485.567 2.7234 485.639 2.67544 485.723 2.6488L487.457 2.10833L488.088 0.621459C488.119 0.549692 488.175 0.487797 488.248 0.444089C488.322 0.400381 488.409 0.376953 488.498 0.376953C488.587 0.376953 488.675 0.400381 488.748 0.444089C488.821 0.487797 488.877 0.549692 488.908 0.621459L489.539 2.10833L491.274 2.6488C491.358 2.67457 491.431 2.72227 491.483 2.78527C491.534 2.84828 491.561 2.92346 491.561 3.00036Z" fill="#3E3E3E" fill-opacity="0.9"/>
<path d="M482.623 15.0004C482.624 15.0773 482.601 15.1525 482.557 15.2155C482.512 15.2785 482.45 15.3262 482.377 15.3519L480.89 15.8926L480.35 17.3793C480.323 17.451 480.275 17.5129 480.213 17.5566C480.15 17.6003 480.075 17.6238 479.998 17.6238C479.922 17.6238 479.847 17.6003 479.784 17.5566C479.721 17.5129 479.673 17.451 479.647 17.3793L479.106 15.8924L477.62 15.3519C477.548 15.3253 477.486 15.2773 477.442 15.2145C477.398 15.1516 477.375 15.0769 477.375 15.0004C477.375 14.9238 477.398 14.8491 477.442 14.7863C477.486 14.7234 477.548 14.6754 477.62 14.6488L479.106 14.1083L479.647 12.6215C479.673 12.5497 479.721 12.4878 479.784 12.4441C479.847 12.4004 479.922 12.377 479.998 12.377C480.075 12.377 480.15 12.4004 480.213 12.4441C480.275 12.4878 480.323 12.5497 480.35 12.6215L480.891 14.1083L482.377 14.6488C482.45 14.6746 482.512 14.7223 482.557 14.7853C482.601 14.8483 482.624 14.9235 482.623 15.0004Z" fill="#3E3E3E" fill-opacity="0.9"/>
<path d="M543.561 199.5C543.561 199.615 543.534 199.728 543.483 199.822C543.431 199.917 543.358 199.988 543.274 200.027L541.539 200.838L540.908 203.068C540.877 203.176 540.821 203.268 540.748 203.334C540.675 203.4 540.587 203.435 540.498 203.435C540.409 203.435 540.322 203.4 540.248 203.334C540.175 203.268 540.119 203.176 540.088 203.068L539.457 200.838L537.723 200.027C537.639 199.987 537.567 199.915 537.516 199.821C537.465 199.726 537.438 199.614 537.438 199.5C537.438 199.385 537.465 199.273 537.516 199.178C537.567 199.084 537.639 199.012 537.723 198.972L539.457 198.162L540.088 195.931C540.119 195.824 540.175 195.731 540.248 195.665C540.322 195.6 540.409 195.564 540.498 195.564C540.587 195.564 540.675 195.6 540.748 195.665C540.821 195.731 540.877 195.824 540.908 195.931L541.539 198.162L543.274 198.972C543.358 199.011 543.431 199.082 543.483 199.177C543.534 199.271 543.561 199.384 543.561 199.5Z" fill="#3E3E3E" fill-opacity="0.9"/>
<path d="M890.623 111C890.624 111.077 890.601 111.152 890.557 111.215C890.512 111.278 890.45 111.326 890.377 111.352L888.89 111.893L888.35 113.379C888.323 113.451 888.275 113.513 888.213 113.557C888.15 113.6 888.075 113.624 887.998 113.624C887.922 113.624 887.847 113.6 887.784 113.557C887.721 113.513 887.673 113.451 887.647 113.379L887.106 111.892L885.62 111.352C885.548 111.325 885.486 111.277 885.442 111.214C885.398 111.152 885.375 111.077 885.375 111C885.375 110.924 885.398 110.849 885.442 110.786C885.486 110.723 885.548 110.675 885.62 110.649L887.106 110.108L887.647 108.621C887.673 108.55 887.721 108.488 887.784 108.444C887.847 108.4 887.922 108.377 887.998 108.377C888.075 108.377 888.15 108.4 888.213 108.444C888.275 108.488 888.323 108.55 888.35 108.621L888.891 110.108L890.377 110.649C890.45 110.675 890.512 110.722 890.557 110.785C890.601 110.848 890.624 110.923 890.623 111Z" fill="#3E3E3E" fill-opacity="0.9"/>
<path d="M1074.62 326C1074.62 326.077 1074.6 326.152 1074.56 326.215C1074.51 326.278 1074.45 326.326 1074.38 326.352L1072.89 326.893L1072.35 328.379C1072.32 328.451 1072.28 328.513 1072.21 328.557C1072.15 328.6 1072.07 328.624 1072 328.624C1071.92 328.624 1071.85 328.6 1071.78 328.557C1071.72 328.513 1071.67 328.451 1071.65 328.379L1071.11 326.892L1069.62 326.352C1069.55 326.325 1069.49 326.277 1069.44 326.214C1069.4 326.152 1069.38 326.077 1069.38 326C1069.38 325.924 1069.4 325.849 1069.44 325.786C1069.49 325.723 1069.55 325.675 1069.62 325.649L1071.11 325.108L1071.65 323.621C1071.67 323.55 1071.72 323.488 1071.78 323.444C1071.85 323.4 1071.92 323.377 1072 323.377C1072.07 323.377 1072.15 323.4 1072.21 323.444C1072.28 323.488 1072.32 323.55 1072.35 323.621L1072.89 325.108L1074.38 325.649C1074.45 325.675 1074.51 325.722 1074.56 325.785C1074.6 325.848 1074.62 325.923 1074.62 326Z" fill="#3E3E3E" fill-opacity="0.9"/>
<path d="M1103.62 311C1103.62 311.077 1103.6 311.152 1103.56 311.215C1103.51 311.278 1103.45 311.326 1103.38 311.352L1101.89 311.893L1101.35 313.379C1101.32 313.451 1101.28 313.513 1101.21 313.557C1101.15 313.6 1101.07 313.624 1101 313.624C1100.92 313.624 1100.85 313.6 1100.78 313.557C1100.72 313.513 1100.67 313.451 1100.65 313.379L1100.11 311.892L1098.62 311.352C1098.55 311.325 1098.49 311.277 1098.44 311.214C1098.4 311.152 1098.38 311.077 1098.38 311C1098.38 310.924 1098.4 310.849 1098.44 310.786C1098.49 310.723 1098.55 310.675 1098.62 310.649L1100.11 310.108L1100.65 308.621C1100.67 308.55 1100.72 308.488 1100.78 308.444C1100.85 308.4 1100.92 308.377 1101 308.377C1101.07 308.377 1101.15 308.4 1101.21 308.444C1101.28 308.488 1101.32 308.55 1101.35 308.621L1101.89 310.108L1103.38 310.649C1103.45 310.675 1103.51 310.722 1103.56 310.785C1103.6 310.848 1103.62 310.923 1103.62 311Z" fill="#3E3E3E" fill-opacity="0.9"/>
<path d="M1325.56 232C1325.56 232.077 1325.53 232.152 1325.48 232.215C1325.43 232.278 1325.36 232.326 1325.27 232.352L1323.54 232.893L1322.91 234.379C1322.88 234.451 1322.82 234.513 1322.75 234.557C1322.67 234.6 1322.59 234.624 1322.5 234.624C1322.41 234.624 1322.32 234.6 1322.25 234.557C1322.18 234.513 1322.12 234.451 1322.09 234.379L1321.46 232.892L1319.72 232.352C1319.64 232.325 1319.57 232.277 1319.52 232.214C1319.46 232.152 1319.44 232.077 1319.44 232C1319.44 231.924 1319.46 231.849 1319.52 231.786C1319.57 231.723 1319.64 231.675 1319.72 231.649L1321.46 231.108L1322.09 229.621C1322.12 229.55 1322.18 229.488 1322.25 229.444C1322.32 229.4 1322.41 229.377 1322.5 229.377C1322.59 229.377 1322.67 229.4 1322.75 229.444C1322.82 229.488 1322.88 229.55 1322.91 229.621L1323.54 231.108L1325.27 231.649C1325.36 231.675 1325.43 231.722 1325.48 231.785C1325.53 231.848 1325.56 231.923 1325.56 232Z" fill="#3E3E3E" fill-opacity="0.9"/>
<path d="M1088.56 329C1088.56 329.077 1088.53 329.152 1088.48 329.215C1088.43 329.278 1088.36 329.326 1088.27 329.352L1086.54 329.893L1085.91 331.379C1085.88 331.451 1085.82 331.513 1085.75 331.557C1085.67 331.6 1085.59 331.624 1085.5 331.624C1085.41 331.624 1085.32 331.6 1085.25 331.557C1085.18 331.513 1085.12 331.451 1085.09 331.379L1084.46 329.892L1082.72 329.352C1082.64 329.325 1082.57 329.277 1082.52 329.214C1082.46 329.152 1082.44 329.077 1082.44 329C1082.44 328.924 1082.46 328.849 1082.52 328.786C1082.57 328.723 1082.64 328.675 1082.72 328.649L1084.46 328.108L1085.09 326.621C1085.12 326.55 1085.18 326.488 1085.25 326.444C1085.32 326.4 1085.41 326.377 1085.5 326.377C1085.59 326.377 1085.67 326.4 1085.75 326.444C1085.82 326.488 1085.88 326.55 1085.91 326.621L1086.54 328.108L1088.27 328.649C1088.36 328.675 1088.43 328.722 1088.48 328.785C1088.53 328.848 1088.56 328.923 1088.56 329Z" fill="#3E3E3E" fill-opacity="0.9"/>
<path d="M1287.62 102C1287.62 102.077 1287.6 102.152 1287.56 102.215C1287.51 102.278 1287.45 102.326 1287.38 102.352L1285.89 102.893L1285.35 104.379C1285.32 104.451 1285.28 104.513 1285.21 104.557C1285.15 104.6 1285.07 104.624 1285 104.624C1284.92 104.624 1284.85 104.6 1284.78 104.557C1284.72 104.513 1284.67 104.451 1284.65 104.379L1284.11 102.892L1282.62 102.352C1282.55 102.325 1282.49 102.277 1282.44 102.214C1282.4 102.152 1282.38 102.077 1282.38 102C1282.38 101.924 1282.4 101.849 1282.44 101.786C1282.49 101.723 1282.55 101.675 1282.62 101.649L1284.11 101.108L1284.65 99.6215C1284.67 99.5497 1284.72 99.4878 1284.78 99.4441C1284.85 99.4004 1284.92 99.377 1285 99.377C1285.07 99.377 1285.15 99.4004 1285.21 99.4441C1285.28 99.4878 1285.32 99.5497 1285.35 99.6215L1285.89 101.108L1287.38 101.649C1287.45 101.675 1287.51 101.722 1287.56 101.785C1287.6 101.848 1287.62 101.923 1287.62 102Z" fill="#3E3E3E" fill-opacity="0.9"/>
<path d="M1466.56 97.0004C1466.56 97.0773 1466.53 97.1525 1466.48 97.2155C1466.43 97.2785 1466.36 97.3262 1466.27 97.3519L1464.54 97.8926L1463.91 99.3793C1463.88 99.451 1463.82 99.5129 1463.75 99.5566C1463.67 99.6003 1463.59 99.6238 1463.5 99.6238C1463.41 99.6238 1463.32 99.6003 1463.25 99.5566C1463.18 99.5129 1463.12 99.451 1463.09 99.3793L1462.46 97.8924L1460.72 97.3519C1460.64 97.3253 1460.57 97.2773 1460.52 97.2145C1460.46 97.1516 1460.44 97.0769 1460.44 97.0004C1460.44 96.9238 1460.46 96.8491 1460.52 96.7863C1460.57 96.7234 1460.64 96.6754 1460.72 96.6488L1462.46 96.1083L1463.09 94.6215C1463.12 94.5497 1463.18 94.4878 1463.25 94.4441C1463.32 94.4004 1463.41 94.377 1463.5 94.377C1463.59 94.377 1463.67 94.4004 1463.75 94.4441C1463.82 94.4878 1463.88 94.5497 1463.91 94.6215L1464.54 96.1083L1466.27 96.6488C1466.36 96.6746 1466.43 96.7223 1466.48 96.7853C1466.53 96.8483 1466.56 96.9235 1466.56 97.0004Z" fill="#3E3E3E" fill-opacity="0.9"/>
<path d="M1485.56 259C1485.56 259.077 1485.53 259.152 1485.48 259.215C1485.43 259.278 1485.36 259.326 1485.27 259.352L1483.54 259.893L1482.91 261.379C1482.88 261.451 1482.82 261.513 1482.75 261.557C1482.67 261.6 1482.59 261.624 1482.5 261.624C1482.41 261.624 1482.32 261.6 1482.25 261.557C1482.18 261.513 1482.12 261.451 1482.09 261.379L1481.46 259.892L1479.72 259.352C1479.64 259.325 1479.57 259.277 1479.52 259.214C1479.46 259.152 1479.44 259.077 1479.44 259C1479.44 258.924 1479.46 258.849 1479.52 258.786C1479.57 258.723 1479.64 258.675 1479.72 258.649L1481.46 258.108L1482.09 256.621C1482.12 256.55 1482.18 256.488 1482.25 256.444C1482.32 256.4 1482.41 256.377 1482.5 256.377C1482.59 256.377 1482.67 256.4 1482.75 256.444C1482.82 256.488 1482.88 256.55 1482.91 256.621L1483.54 258.108L1485.27 258.649C1485.36 258.675 1485.43 258.722 1485.48 258.785C1485.53 258.848 1485.56 258.923 1485.56 259Z" fill="#3E3E3E" fill-opacity="0.9"/>
<path d="M695.502 823.5C695.503 823.59 695.471 823.678 695.413 823.751C695.354 823.825 695.27 823.88 695.174 823.91L693.191 824.541L692.471 826.275C692.435 826.359 692.371 826.431 692.287 826.482C692.203 826.533 692.104 826.561 692.002 826.561C691.9 826.561 691.8 826.533 691.716 826.482C691.633 826.431 691.569 826.359 691.533 826.275L690.812 824.541L688.83 823.91C688.734 823.879 688.652 823.823 688.593 823.75C688.535 823.677 688.504 823.589 688.504 823.5C688.504 823.411 688.535 823.324 688.593 823.25C688.652 823.177 688.734 823.121 688.83 823.09L690.812 822.459L691.533 820.725C691.569 820.641 691.633 820.569 691.716 820.518C691.8 820.467 691.9 820.439 692.002 820.439C692.104 820.439 692.203 820.467 692.287 820.518C692.371 820.569 692.435 820.641 692.471 820.725L693.191 822.459L695.174 823.09C695.27 823.12 695.354 823.176 695.413 823.249C695.471 823.323 695.503 823.41 695.502 823.5Z" fill="#3E3E3E" fill-opacity="0.9"/>
<path d="M416.561 703C416.561 703.077 416.534 703.152 416.483 703.215C416.431 703.278 416.358 703.326 416.274 703.352L414.539 703.893L413.908 705.379C413.877 705.451 413.821 705.513 413.748 705.557C413.675 705.6 413.587 705.624 413.498 705.624C413.409 705.624 413.322 705.6 413.248 705.557C413.175 705.513 413.119 705.451 413.088 705.379L412.457 703.892L410.723 703.352C410.639 703.325 410.567 703.277 410.516 703.214C410.465 703.152 410.438 703.077 410.438 703C410.438 702.924 410.465 702.849 410.516 702.786C410.567 702.723 410.639 702.675 410.723 702.649L412.457 702.108L413.088 700.621C413.119 700.55 413.175 700.488 413.248 700.444C413.322 700.4 413.409 700.377 413.498 700.377C413.587 700.377 413.675 700.4 413.748 700.444C413.821 700.488 413.877 700.55 413.908 700.621L414.539 702.108L416.274 702.649C416.358 702.675 416.431 702.722 416.483 702.785C416.534 702.848 416.561 702.923 416.561 703Z" fill="#3E3E3E" fill-opacity="0.9"/>
<path d="M576.561 730C576.561 730.077 576.534 730.152 576.483 730.215C576.431 730.278 576.358 730.326 576.274 730.352L574.539 730.893L573.908 732.379C573.877 732.451 573.821 732.513 573.748 732.557C573.675 732.6 573.587 732.624 573.498 732.624C573.409 732.624 573.322 732.6 573.248 732.557C573.175 732.513 573.119 732.451 573.088 732.379L572.457 730.892L570.723 730.352C570.639 730.325 570.567 730.277 570.516 730.214C570.465 730.152 570.438 730.077 570.438 730C570.438 729.924 570.465 729.849 570.516 729.786C570.567 729.723 570.639 729.675 570.723 729.649L572.457 729.108L573.088 727.621C573.119 727.55 573.175 727.488 573.248 727.444C573.322 727.4 573.409 727.377 573.498 727.377C573.587 727.377 573.675 727.4 573.748 727.444C573.821 727.488 573.877 727.55 573.908 727.621L574.539 729.108L576.274 729.649C576.358 729.675 576.431 729.722 576.483 729.785C576.534 729.848 576.561 729.923 576.561 730Z" fill="#3E3E3E" fill-opacity="0.9"/>
<path d="M388.623 394C388.624 394.077 388.601 394.152 388.557 394.215C388.512 394.278 388.45 394.326 388.377 394.352L386.89 394.893L386.35 396.379C386.323 396.451 386.275 396.513 386.213 396.557C386.15 396.6 386.075 396.624 385.998 396.624C385.922 396.624 385.847 396.6 385.784 396.557C385.721 396.513 385.673 396.451 385.647 396.379L385.106 394.892L383.62 394.352C383.548 394.325 383.486 394.277 383.442 394.214C383.398 394.152 383.375 394.077 383.375 394C383.375 393.924 383.398 393.849 383.442 393.786C383.486 393.723 383.548 393.675 383.62 393.649L385.106 393.108L385.647 391.621C385.673 391.55 385.721 391.488 385.784 391.444C385.847 391.4 385.922 391.377 385.998 391.377C386.075 391.377 386.15 391.4 386.213 391.444C386.275 391.488 386.323 391.55 386.35 391.621L386.891 393.108L388.377 393.649C388.45 393.675 388.512 393.722 388.557 393.785C388.601 393.848 388.624 393.923 388.623 394Z" fill="#3E3E3E" fill-opacity="0.9"/>
<path d="M652.623 311C652.624 311.077 652.601 311.152 652.557 311.215C652.512 311.278 652.45 311.326 652.377 311.352L650.89 311.893L650.35 313.379C650.323 313.451 650.275 313.513 650.213 313.557C650.15 313.6 650.075 313.624 649.998 313.624C649.922 313.624 649.847 313.6 649.784 313.557C649.721 313.513 649.673 313.451 649.647 313.379L649.106 311.892L647.62 311.352C647.548 311.325 647.486 311.277 647.442 311.214C647.398 311.152 647.375 311.077 647.375 311C647.375 310.924 647.398 310.849 647.442 310.786C647.486 310.723 647.548 310.675 647.62 310.649L649.106 310.108L649.647 308.621C649.673 308.55 649.721 308.488 649.784 308.444C649.847 308.4 649.922 308.377 649.998 308.377C650.075 308.377 650.15 308.4 650.213 308.444C650.275 308.488 650.323 308.55 650.35 308.621L650.891 310.108L652.377 310.649C652.45 310.675 652.512 310.722 652.557 310.785C652.601 310.848 652.624 310.923 652.623 311Z" fill="#3E3E3E" fill-opacity="0.9"/>
<path d="M353.561 67.0004C353.561 67.0773 353.534 67.1525 353.483 67.2155C353.431 67.2785 353.358 67.3262 353.274 67.3519L351.539 67.8926L350.908 69.3793C350.877 69.451 350.821 69.5129 350.748 69.5566C350.675 69.6003 350.587 69.6238 350.498 69.6238C350.409 69.6238 350.322 69.6003 350.248 69.5566C350.175 69.5129 350.119 69.451 350.088 69.3793L349.457 67.8924L347.723 67.3519C347.639 67.3253 347.567 67.2773 347.516 67.2145C347.465 67.1516 347.438 67.0769 347.438 67.0004C347.438 66.9238 347.465 66.8491 347.516 66.7863C347.567 66.7234 347.639 66.6754 347.723 66.6488L349.457 66.1083L350.088 64.6215C350.119 64.5497 350.175 64.4878 350.248 64.4441C350.322 64.4004 350.409 64.377 350.498 64.377C350.587 64.377 350.675 64.4004 350.748 64.4441C350.821 64.4878 350.877 64.5497 350.908 64.6215L351.539 66.1083L353.274 66.6488C353.358 66.6746 353.431 66.7223 353.483 66.7853C353.534 66.8483 353.561 66.9235 353.561 67.0004Z" fill="#3E3E3E" fill-opacity="0.9"/>
<path d="M1712.56 331C1712.56 331.077 1712.53 331.152 1712.48 331.215C1712.43 331.278 1712.36 331.326 1712.27 331.352L1710.54 331.893L1709.91 333.379C1709.88 333.451 1709.82 333.513 1709.75 333.557C1709.67 333.6 1709.59 333.624 1709.5 333.624C1709.41 333.624 1709.32 333.6 1709.25 333.557C1709.18 333.513 1709.12 333.451 1709.09 333.379L1708.46 331.892L1706.72 331.352C1706.64 331.325 1706.57 331.277 1706.52 331.214C1706.46 331.152 1706.44 331.077 1706.44 331C1706.44 330.924 1706.46 330.849 1706.52 330.786C1706.57 330.723 1706.64 330.675 1706.72 330.649L1708.46 330.108L1709.09 328.621C1709.12 328.55 1709.18 328.488 1709.25 328.444C1709.32 328.4 1709.41 328.377 1709.5 328.377C1709.59 328.377 1709.67 328.4 1709.75 328.444C1709.82 328.488 1709.88 328.55 1709.91 328.621L1710.54 330.108L1712.27 330.649C1712.36 330.675 1712.43 330.722 1712.48 330.785C1712.53 330.848 1712.56 330.923 1712.56 331Z" fill="#3E3E3E" fill-opacity="0.9"/>
<path d="M1677.62 493C1677.62 493.077 1677.6 493.152 1677.56 493.215C1677.51 493.278 1677.45 493.326 1677.38 493.352L1675.89 493.893L1675.35 495.379C1675.32 495.451 1675.28 495.513 1675.21 495.557C1675.15 495.6 1675.07 495.624 1675 495.624C1674.92 495.624 1674.85 495.6 1674.78 495.557C1674.72 495.513 1674.67 495.451 1674.65 495.379L1674.11 493.892L1672.62 493.352C1672.55 493.325 1672.49 493.277 1672.44 493.214C1672.4 493.152 1672.38 493.077 1672.38 493C1672.38 492.924 1672.4 492.849 1672.44 492.786C1672.49 492.723 1672.55 492.675 1672.62 492.649L1674.11 492.108L1674.65 490.621C1674.67 490.55 1674.72 490.488 1674.78 490.444C1674.85 490.4 1674.92 490.377 1675 490.377C1675.07 490.377 1675.15 490.4 1675.21 490.444C1675.28 490.488 1675.32 490.55 1675.35 490.621L1675.89 492.108L1677.38 492.649C1677.45 492.675 1677.51 492.722 1677.56 492.785C1677.6 492.848 1677.62 492.923 1677.62 493Z" fill="#3E3E3E" fill-opacity="0.9"/>
<path d="M1164.62 868.5C1164.62 868.615 1164.6 868.728 1164.56 868.822C1164.51 868.917 1164.45 868.988 1164.38 869.027L1162.89 869.838L1162.35 872.068C1162.32 872.176 1162.28 872.268 1162.21 872.334C1162.15 872.4 1162.07 872.435 1162 872.435C1161.92 872.435 1161.85 872.4 1161.78 872.334C1161.72 872.268 1161.67 872.176 1161.65 872.068L1161.11 869.838L1159.62 869.027C1159.55 868.987 1159.49 868.915 1159.44 868.821C1159.4 868.726 1159.38 868.614 1159.38 868.5C1159.38 868.385 1159.4 868.273 1159.44 868.178C1159.49 868.084 1159.55 868.012 1159.62 867.972L1161.11 867.162L1161.65 864.931C1161.67 864.824 1161.72 864.731 1161.78 864.665C1161.85 864.6 1161.92 864.564 1162 864.564C1162.07 864.564 1162.15 864.6 1162.21 864.665C1162.28 864.731 1162.32 864.824 1162.35 864.931L1162.89 867.162L1164.38 867.972C1164.45 868.011 1164.51 868.082 1164.56 868.177C1164.6 868.271 1164.62 868.384 1164.62 868.5Z" fill="#3E3E3E" fill-opacity="0.9"/>
<path d="M1134.62 750.5C1134.62 750.615 1134.6 750.728 1134.56 750.822C1134.51 750.917 1134.45 750.988 1134.38 751.027L1132.89 751.838L1132.35 754.068C1132.32 754.176 1132.28 754.268 1132.21 754.334C1132.15 754.4 1132.07 754.435 1132 754.435C1131.92 754.435 1131.85 754.4 1131.78 754.334C1131.72 754.268 1131.67 754.176 1131.65 754.068L1131.11 751.838L1129.62 751.027C1129.55 750.987 1129.49 750.915 1129.44 750.821C1129.4 750.726 1129.38 750.614 1129.38 750.5C1129.38 750.385 1129.4 750.273 1129.44 750.178C1129.49 750.084 1129.55 750.012 1129.62 749.972L1131.11 749.162L1131.65 746.931C1131.67 746.824 1131.72 746.731 1131.78 746.665C1131.85 746.6 1131.92 746.564 1132 746.564C1132.07 746.564 1132.15 746.6 1132.21 746.665C1132.28 746.731 1132.32 746.824 1132.35 746.931L1132.89 749.162L1134.38 749.972C1134.45 750.011 1134.51 750.082 1134.56 750.177C1134.6 750.271 1134.62 750.384 1134.62 750.5Z" fill="#3E3E3E" fill-opacity="0.9"/>
<path d="M1659.56 831.5C1659.56 831.615 1659.53 831.728 1659.48 831.822C1659.43 831.917 1659.36 831.988 1659.27 832.027L1657.54 832.838L1656.91 835.068C1656.88 835.176 1656.82 835.268 1656.75 835.334C1656.67 835.4 1656.59 835.435 1656.5 835.435C1656.41 835.435 1656.32 835.4 1656.25 835.334C1656.18 835.268 1656.12 835.176 1656.09 835.068L1655.46 832.838L1653.72 832.027C1653.64 831.987 1653.57 831.915 1653.52 831.821C1653.46 831.726 1653.44 831.614 1653.44 831.5C1653.44 831.385 1653.46 831.273 1653.52 831.178C1653.57 831.084 1653.64 831.012 1653.72 830.972L1655.46 830.162L1656.09 827.931C1656.12 827.824 1656.18 827.731 1656.25 827.665C1656.32 827.6 1656.41 827.564 1656.5 827.564C1656.59 827.564 1656.67 827.6 1656.75 827.665C1656.82 827.731 1656.88 827.824 1656.91 827.931L1657.54 830.162L1659.27 830.972C1659.36 831.011 1659.43 831.082 1659.48 831.177C1659.53 831.271 1659.56 831.384 1659.56 831.5Z" fill="#3E3E3E" fill-opacity="0.9"/>
<path d="M1705.62 537C1705.62 537.077 1705.6 537.152 1705.56 537.215C1705.51 537.278 1705.45 537.326 1705.38 537.352L1703.89 537.893L1703.35 539.379C1703.32 539.451 1703.28 539.513 1703.21 539.557C1703.15 539.6 1703.07 539.624 1703 539.624C1702.92 539.624 1702.85 539.6 1702.78 539.557C1702.72 539.513 1702.67 539.451 1702.65 539.379L1702.11 537.892L1700.62 537.352C1700.55 537.325 1700.49 537.277 1700.44 537.214C1700.4 537.152 1700.38 537.077 1700.38 537C1700.38 536.924 1700.4 536.849 1700.44 536.786C1700.49 536.723 1700.55 536.675 1700.62 536.649L1702.11 536.108L1702.65 534.621C1702.67 534.55 1702.72 534.488 1702.78 534.444C1702.85 534.4 1702.92 534.377 1703 534.377C1703.07 534.377 1703.15 534.4 1703.21 534.444C1703.28 534.488 1703.32 534.55 1703.35 534.621L1703.89 536.108L1705.38 536.649C1705.45 536.675 1705.51 536.722 1705.56 536.785C1705.6 536.848 1705.62 536.923 1705.62 537Z" fill="#3E3E3E" fill-opacity="0.9"/>
<path d="M1687.56 875.5C1687.56 875.615 1687.53 875.728 1687.48 875.822C1687.43 875.917 1687.36 875.988 1687.27 876.027L1685.54 876.838L1684.91 879.068C1684.88 879.176 1684.82 879.268 1684.75 879.334C1684.67 879.4 1684.59 879.435 1684.5 879.435C1684.41 879.435 1684.32 879.4 1684.25 879.334C1684.18 879.268 1684.12 879.176 1684.09 879.068L1683.46 876.838L1681.72 876.027C1681.64 875.987 1681.57 875.915 1681.52 875.821C1681.46 875.726 1681.44 875.614 1681.44 875.5C1681.44 875.385 1681.46 875.273 1681.52 875.178C1681.57 875.084 1681.64 875.012 1681.72 874.972L1683.46 874.162L1684.09 871.931C1684.12 871.824 1684.18 871.731 1684.25 871.665C1684.32 871.6 1684.41 871.564 1684.5 871.564C1684.59 871.564 1684.67 871.6 1684.75 871.665C1684.82 871.731 1684.88 871.824 1684.91 871.931L1685.54 874.162L1687.27 874.972C1687.36 875.011 1687.43 875.082 1687.48 875.177C1687.53 875.271 1687.56 875.384 1687.56 875.5Z" fill="#3E3E3E" fill-opacity="0.9"/>
<path d="M839.561 535.5C839.561 535.59 839.534 535.678 839.483 535.751C839.431 535.825 839.358 535.88 839.274 535.91L837.539 536.541L836.908 538.275C836.877 538.359 836.821 538.431 836.748 538.482C836.675 538.533 836.587 538.561 836.498 538.561C836.409 538.561 836.322 538.533 836.248 538.482C836.175 538.431 836.119 538.359 836.088 538.275L835.457 536.541L833.723 535.91C833.639 535.879 833.567 535.823 833.516 535.75C833.465 535.677 833.438 535.589 833.438 535.5C833.438 535.411 833.465 535.324 833.516 535.25C833.567 535.177 833.639 535.121 833.723 535.09L835.457 534.459L836.088 532.725C836.119 532.641 836.175 532.569 836.248 532.518C836.322 532.467 836.409 532.439 836.498 532.439C836.587 532.439 836.675 532.467 836.748 532.518C836.821 532.569 836.877 532.641 836.908 532.725L837.539 534.459L839.274 535.09C839.358 535.12 839.431 535.176 839.483 535.249C839.534 535.323 839.561 535.41 839.561 535.5Z" fill="#3E3E3E" fill-opacity="0.9"/>
<path d="M488.502 914.5C488.503 914.59 488.471 914.678 488.413 914.751C488.354 914.825 488.27 914.88 488.174 914.91L486.191 915.541L485.471 917.275C485.435 917.359 485.371 917.431 485.287 917.482C485.203 917.533 485.104 917.561 485.002 917.561C484.9 917.561 484.8 917.533 484.716 917.482C484.633 917.431 484.569 917.359 484.533 917.275L483.812 915.541L481.83 914.91C481.734 914.879 481.652 914.823 481.593 914.75C481.535 914.677 481.504 914.589 481.504 914.5C481.504 914.411 481.535 914.324 481.593 914.25C481.652 914.177 481.734 914.121 481.83 914.09L483.812 913.459L484.533 911.725C484.569 911.641 484.633 911.569 484.716 911.518C484.8 911.467 484.9 911.439 485.002 911.439C485.104 911.439 485.203 911.467 485.287 911.518C485.371 911.569 485.435 911.641 485.471 911.725L486.191 913.459L488.174 914.09C488.27 914.12 488.354 914.176 488.413 914.249C488.471 914.323 488.503 914.41 488.502 914.5Z" fill="#3E3E3E" fill-opacity="0.9"/>
<path d="M51.5606 798C51.5613 798.077 51.5341 798.152 51.4826 798.215C51.4312 798.278 51.3581 798.326 51.2735 798.352L49.5388 798.893L48.9083 800.379C48.8772 800.451 48.8213 800.513 48.7479 800.557C48.6746 800.6 48.5875 800.624 48.4981 800.624C48.4088 800.624 48.3217 800.6 48.2483 800.557C48.175 800.513 48.1191 800.451 48.088 800.379L47.4574 798.892L45.7228 798.352C45.639 798.325 45.5668 798.277 45.5158 798.214C45.4648 798.152 45.4375 798.077 45.4375 798C45.4375 797.924 45.4648 797.849 45.5158 797.786C45.5668 797.723 45.639 797.675 45.7228 797.649L47.4574 797.108L48.088 795.621C48.1191 795.55 48.175 795.488 48.2483 795.444C48.3217 795.4 48.4088 795.377 48.4981 795.377C48.5875 795.377 48.6746 795.4 48.7479 795.444C48.8213 795.488 48.8772 795.55 48.9083 795.621L49.5391 797.108L51.2735 797.649C51.3581 797.675 51.4312 797.722 51.4826 797.785C51.5341 797.848 51.5613 797.923 51.5606 798Z" fill="#3E3E3E" fill-opacity="0.9"/>
<path d="M369.561 821C369.561 821.077 369.534 821.152 369.483 821.215C369.431 821.278 369.358 821.326 369.274 821.352L367.539 821.893L366.908 823.379C366.877 823.451 366.821 823.513 366.748 823.557C366.675 823.6 366.587 823.624 366.498 823.624C366.409 823.624 366.322 823.6 366.248 823.557C366.175 823.513 366.119 823.451 366.088 823.379L365.457 821.892L363.723 821.352C363.639 821.325 363.567 821.277 363.516 821.214C363.465 821.152 363.438 821.077 363.438 821C363.438 820.924 363.465 820.849 363.516 820.786C363.567 820.723 363.639 820.675 363.723 820.649L365.457 820.108L366.088 818.621C366.119 818.55 366.175 818.488 366.248 818.444C366.322 818.4 366.409 818.377 366.498 818.377C366.587 818.377 366.675 818.4 366.748 818.444C366.821 818.488 366.877 818.55 366.908 818.621L367.539 820.108L369.274 820.649C369.358 820.675 369.431 820.722 369.483 820.785C369.534 820.848 369.561 820.923 369.561 821Z" fill="#3E3E3E" fill-opacity="0.9"/>
<path d="M23.6254 489C23.626 489.077 23.6026 489.152 23.5585 489.215C23.5144 489.278 23.4517 489.326 23.3793 489.352L21.8924 489.893L21.3519 491.379C21.3253 491.451 21.2773 491.513 21.2145 491.557C21.1516 491.6 21.0769 491.624 21.0004 491.624C20.9238 491.624 20.8491 491.6 20.7863 491.557C20.7234 491.513 20.6754 491.451 20.6488 491.379L20.1083 489.892L18.6215 489.352C18.5497 489.325 18.4878 489.277 18.4441 489.214C18.4004 489.152 18.377 489.077 18.377 489C18.377 488.924 18.4004 488.849 18.4441 488.786C18.4878 488.723 18.5497 488.675 18.6215 488.649L20.1083 488.108L20.6488 486.621C20.6754 486.55 20.7234 486.488 20.7863 486.444C20.8491 486.4 20.9238 486.377 21.0004 486.377C21.0769 486.377 21.1516 486.4 21.2145 486.444C21.2773 486.488 21.3253 486.55 21.3519 486.621L21.8926 488.108L23.3793 488.649C23.4517 488.675 23.5144 488.722 23.5585 488.785C23.6026 488.848 23.626 488.923 23.6254 489Z" fill="#3E3E3E" fill-opacity="0.9"/>
<path d="M445.623 402C445.624 402.077 445.601 402.152 445.557 402.215C445.512 402.278 445.45 402.326 445.377 402.352L443.89 402.893L443.35 404.379C443.323 404.451 443.275 404.513 443.213 404.557C443.15 404.6 443.075 404.624 442.998 404.624C442.922 404.624 442.847 404.6 442.784 404.557C442.721 404.513 442.673 404.451 442.647 404.379L442.106 402.892L440.62 402.352C440.548 402.325 440.486 402.277 440.442 402.214C440.398 402.152 440.375 402.077 440.375 402C440.375 401.924 440.398 401.849 440.442 401.786C440.486 401.723 440.548 401.675 440.62 401.649L442.106 401.108L442.647 399.621C442.673 399.55 442.721 399.488 442.784 399.444C442.847 399.4 442.922 399.377 442.998 399.377C443.075 399.377 443.15 399.4 443.213 399.444C443.275 399.488 443.323 399.55 443.35 399.621L443.891 401.108L445.377 401.649C445.45 401.675 445.512 401.722 445.557 401.785C445.601 401.848 445.624 401.923 445.623 402Z" fill="#3E3E3E" fill-opacity="0.9"/>
</svg>
